# xmcd CD database file
#
# Track frame offsets:
#	150
#	27177
#	43955
#	60766
#	82597
#	107172
#	127455
#	149983
#	173554
#	198739
#	221357
#
# Disc length: 3274 seconds
#
# Revision: 2
# Processed by: cddbd v1.5.2PL0 Copyright (c) Steve Scherf et al.
# Submitted via: CDex 1.51
#
DISCID=a00cc80b
DTITLE=Grupo Niche - La Danza de la Chancaca [CD 1)
DYEAR=2001
DGENRE=Salsa
TTITLE0=La Danza de la Chancaca
TTITLE1=Gotas de Lluvia (Bachata)
TTITLE2=Gotas de Lluvia (Balada Pop)
TTITLE3=Sin Sentimiento
TTITLE4=Mexico Mexico
TTITLE5=La Canoa Ranchaa
TTITLE6=La Culpa la Tiene
TTITLE7=Mi Pueblo Natal
TTITLE8=Duele Mas
TTITLE9=Una Aventura
TTITLE10=Lamento Guajiro
EXTD=YEAR: 2001
EXTT0=
EXTT1=
EXTT2=
EXTT3=
EXTT4=
EXTT5=
EXTT6=
EXTT7=
EXTT8=
EXTT9=
EXTT10=
PLAYORDER=
